<?xml version="1.0" ?>
<!DOCTYPE svg  PUBLIC '-//W3C//DTD SVG 1.1//EN'  'http://www.w3.org/Graphics/SVG/1.1/DTD/svg11.dtd'>
<!-- Uploaded to: SVG Repo, www.svgrepo.com, Generator: SVG Repo Mixer Tools -->
<svg fill="#000000" width="800px" height="800px" viewBox="0 0 512 512" version="1.1" xml:space="preserve" xmlns="http://www.w3.org/2000/svg" xmlns:xlink="http://www.w3.org/1999/xlink">
<g id="A_-_148_x2C__balance_x2C__law_x2C__loss_x2C__profit_x2C_">
<g>
<path d="M228.449,387.406l0.796-6.329h-64.608v23.755h187.249v-23.755h-64.608l0.752,5.978c0.017,0.072,0.016,0.151,0.025,0.226    l0.004,0.024c0.002,0.004,0,0.01,0.002,0.014c0.025,0.164,0.057,0.325,0.057,0.496c0,0.817-0.309,1.555-0.803,2.13    c0,0,0,0.002-0.002,0.002v0.001c-0.156,0.18-0.326,0.343-0.517,0.484c0,0.001,0,0.001-0.001,0.001    c-0.548,0.41-1.22,0.662-1.957,0.662c-0.006,0-0.012,0-0.019,0h-53.116c-0.237,0-0.472-0.026-0.7-0.076    c-0.083-0.019-0.159-0.055-0.24-0.078c-0.142-0.044-0.286-0.081-0.42-0.143c-0.091-0.041-0.171-0.102-0.257-0.15    c-0.116-0.066-0.234-0.125-0.342-0.203c-0.086-0.064-0.158-0.146-0.238-0.219c-0.088-0.08-0.183-0.151-0.263-0.241    c-0.005-0.005-0.009-0.014-0.014-0.02c-0.006-0.007-0.014-0.012-0.02-0.019c-0.066-0.078-0.113-0.169-0.171-0.251    c-0.072-0.103-0.151-0.2-0.211-0.31c-0.052-0.095-0.084-0.195-0.126-0.294c-0.049-0.116-0.105-0.229-0.141-0.349    c-0.03-0.104-0.041-0.21-0.062-0.315c-0.023-0.123-0.053-0.244-0.063-0.369c-0.008-0.109,0.003-0.219,0.006-0.33    C228.446,387.621,228.436,387.514,228.449,387.406z"/>
<polygon points="405.486,411.392 355.166,411.392 161.357,411.392 111.029,411.392 111.029,422.057 405.486,422.057   "/>
<path d="M119.528,352.197c40.676,0,73.967-32.244,75.69-72.528h-26.556c-0.003,0-0.007,0.002-0.01,0.002    c-0.004,0-0.008-0.002-0.012-0.002H43.838C45.561,319.953,78.853,352.197,119.528,352.197z M63.968,296.487    c1.756-0.429,3.527,0.648,3.959,2.403c0.035,0.142,3.689,14.239,18.076,23.031c1.545,0.944,2.033,2.963,1.088,4.509    c-0.618,1.012-1.697,1.57-2.802,1.57c-0.583,0-1.173-0.155-1.707-0.482C65.8,317.265,61.72,301.13,61.554,300.448    C61.126,298.688,62.208,296.914,63.968,296.487z"/>
<path d="M234.148,131.306c0,13.31,10.807,24.138,24.09,24.138c13.31,0,24.138-10.828,24.138-24.138    c0-13.309-10.828-24.136-24.138-24.136C244.955,107.169,234.148,117.997,234.148,131.306z"/>
<polygon points="119.511,154.416 74.583,273.109 163.923,273.109   "/>
<path d="M235.541,384.535h19.503v-75.194c0-1.812,1.469-3.279,3.28-3.279c1.813,0,3.28,1.468,3.28,3.279v75.194h19.378    l-0.98-6.228c-0.08-0.512-0.029-1.025,0.125-1.507L258.24,203.012l-21.846,173.786c0.155,0.482,0.208,0.997,0.127,1.51    L235.541,384.535z"/>
<path d="M392.472,322.933c40.677,0,73.967-32.201,75.69-72.438h-26.517c-0.001,0-0.005,0.001-0.009,0.001s-0.01-0.001-0.014-0.001    h-124.85C318.498,290.731,351.793,322.933,392.472,322.933z"/>
<polygon points="347.564,243.935 436.903,243.935 392.455,125.322   "/>
<path d="M91.611,151.373c0.116,0,0.234-0.007,0.354-0.02l118.115-12.638c3.579,23.357,23.807,41.303,48.146,41.303    c26.885,0,48.757-21.852,48.757-48.713c0-0.973-0.037-1.936-0.094-2.896l85.792-9.134l0.401-0.044    c0.012-0.003,0.027-0.002,0.039-0.004l31.103-3.377c1.801-0.196,3.103-1.814,2.906-3.615s-1.815-3.11-3.614-2.907l-27.777,3.017    V77.44c0-1.812-1.467-3.28-3.279-3.28c-1.811,0-3.279,1.469-3.279,3.28v35.611l-83.118,8.849    c-3.589-18.254-17.413-32.879-35.236-37.646V62.501c0-6.897-5.651-12.509-12.6-12.509c-6.921,0-12.551,5.611-12.551,12.509v21.743    c-20.793,5.551-36.158,24.542-36.158,47.062c0,0.292,0.017,0.581,0.022,0.871l-86.743,9.281v-34.842c0-1.812-1.468-3.28-3.28-3.28    c-1.811,0-3.28,1.468-3.28,3.28v35.543l-24.97,2.672c-1.801,0.192-3.105,1.808-2.912,3.61    C88.534,150.124,89.957,151.373,91.611,151.373z M288.936,131.306c0,16.926-13.771,30.697-30.697,30.697    c-16.9,0-30.65-13.771-30.65-30.697c0-16.925,13.75-30.696,30.65-30.696C275.164,100.609,288.936,114.38,288.936,131.306z     M264.137,82.966c0.043,0.005,0.087,0.007,0.129,0.012v0.001c-0.048-0.005-0.094-0.007-0.139-0.013    c-0.014-0.002-0.024-0.004-0.037-0.004C264.106,82.963,264.123,82.964,264.137,82.966z M261.619,82.726    c0.02,0.002,0.04,0.004,0.061,0.006c-0.024-0.002-0.048-0.004-0.072-0.005c-0.02-0.002-0.039-0.005-0.061-0.006    C261.571,82.722,261.596,82.724,261.619,82.726z M261.092,82.687c0.004,0,0.006,0,0.008,0c-0.006,0-0.014,0-0.019,0    c-0.002,0-0.006-0.001-0.008-0.001C261.079,82.686,261.086,82.686,261.092,82.687z M258.286,82.598    c-0.019,0-0.036-0.001-0.056-0.001c0.002,0,0.006,0,0.008,0C258.255,82.596,258.27,82.598,258.286,82.598z M252.235,62.501    c0-3.28,2.688-5.949,5.991-5.949c0.002,0,0.005,0.001,0.007,0.001c-3.302,0.003-5.986,2.67-5.986,5.948v20.475    c-0.004,0-0.008,0-0.011,0.001V62.501z M249.535,90.062c0.026-0.004,0.053-0.001,0.079-0.007c2.906-0.596,5.805-0.898,8.612-0.898    c0.002,0,0.005,0,0.007,0c-2.807,0.001-5.702,0.303-8.607,0.898c-0.026,0.006-0.052,0.003-0.078,0.007    c-1.735,0.365-3.431,0.841-5.082,1.413C246.112,90.904,247.803,90.427,249.535,90.062z M233.215,97.432    c1.91-1.414,3.933-2.683,6.071-3.763C237.148,94.749,235.125,96.018,233.215,97.432z M229.227,100.761    c-2.958,2.811-5.508,6.043-7.555,9.602C223.719,106.804,226.268,103.572,229.227,100.761z M220.771,112.013    c-1.621,3.134-2.86,6.497-3.655,10.027C217.911,118.51,219.149,115.148,220.771,112.013z M216.451,125.781    c-0.238,1.809-0.362,3.652-0.362,5.524c0,23.242,18.905,42.15,42.144,42.154c-0.002,0-0.005,0-0.007,0    c-23.24,0-42.148-18.91-42.148-42.154C216.077,129.433,216.212,127.591,216.451,125.781z"/>
<path d="M88.889,438.842c-1.811,0-3.279,1.469-3.279,3.279c0,1.812,1.469,3.28,3.279,3.28h244.426c1.812,0,3.279-1.469,3.279-3.28    c0-1.811-1.468-3.279-3.279-3.279H88.889z"/>
<path d="M409.239,455.447h-189.24c-1.812,0-3.28,1.469-3.28,3.28s1.468,3.28,3.28,3.28h189.24c1.81,0,3.28-1.469,3.28-3.28    S411.049,455.447,409.239,455.447z"/>
<path d="M452.254,455.447H428.57c-1.811,0-3.279,1.469-3.279,3.28s1.469,3.28,3.279,3.28h23.684c1.811,0,3.279-1.469,3.279-3.28    S454.064,455.447,452.254,455.447z"/>
<path d="M138.802,455.011H49.131c-1.812,0-3.28,1.469-3.28,3.279c0,1.812,1.468,3.28,3.28,3.28h89.671    c1.812,0,3.28-1.469,3.28-3.28C142.082,456.479,140.614,455.011,138.802,455.011z"/>
</g>
</g>
<g id="Layer_1"/>
</svg>